<svg xmlns="http://www.w3.org/2000/svg" viewBox="0 0 300 262"><defs><style>.cls-1{fill:none;stroke:gray;stroke-miterlimit:10;stroke-width:0.75px;}</style></defs><title>Artboard 1</title><g id="Layer_1" data-name="Layer 1"><polygon class="cls-1" points="-72 -41.89 -72 41.89 0.55 83.78 73.11 41.89 73.11 -41.89 0.55 -83.78 -72 -41.89"/><polygon class="cls-1" points="77.95 -41.89 77.95 41.89 150.5 83.78 223.05 41.89 223.05 -41.89 150.5 -83.78 77.95 -41.89"/><polygon class="cls-1" points="227.89 -41.89 227.89 41.89 300.45 83.78 373 41.89 373 -41.89 300.45 -83.78 227.89 -41.89"/><polygon class="cls-1" points="2.95 89.11 2.95 172.89 75.5 214.78 148.05 172.89 148.05 89.11 75.5 47.22 2.95 89.11"/><polygon class="cls-1" points="152.89 89.11 152.89 172.89 225.45 214.78 298 172.89 298 89.11 225.45 47.22 152.89 89.11"/><polygon class="cls-1" points="-72 218.11 -72 301.89 0.55 343.78 73.11 301.89 73.11 218.11 0.55 176.22 -72 218.11"/><polygon class="cls-1" points="77.95 218.11 77.95 301.89 150.5 343.78 223.05 301.89 223.05 218.11 150.5 176.22 77.95 218.11"/><polygon class="cls-1" points="227.89 218.11 227.89 301.89 300.45 343.78 373 301.89 373 218.11 300.45 176.22 227.89 218.11"/></g></svg>