<svg xmlns="http://www.w3.org/2000/svg" xmlns:xlink="http://www.w3.org/1999/xlink" viewBox="0 0 205.75 237.58"><defs><style>.cls-1{isolation:isolate;}.cls-2{fill:#a6c9c7;stroke:#475959;}.cls-14,.cls-16,.cls-2,.cls-21,.cls-4,.cls-7,.cls-9{stroke-miterlimit:10;}.cls-3{fill:#c3e2e1;}.cls-21,.cls-4{fill:#b5b5b5;stroke-width:0.25px;}.cls-4{stroke:#899696;}.cls-5{opacity:0.25;}.cls-12,.cls-5{mix-blend-mode:multiply;}.cls-6{fill:#4d6060;}.cls-14,.cls-16,.cls-7,.cls-9{fill:none;}.cls-7{stroke:#4d6060;}.cls-8{fill:#b5c6c5;}.cls-9{stroke:#a8b9ba;}.cls-10{fill:#d1dee0;}.cls-11{fill:#dde7e8;}.cls-12,.cls-18{opacity:0.5;}.cls-13{fill:#969999;}.cls-14{stroke:#969999;}.cls-15{fill:url(#linear-gradient);}.cls-16{stroke:#c6aa5c;}.cls-17{fill:#fff;opacity:0.57;}.cls-19,.cls-20{font-size:20px;font-family:EdwardianScriptITC, Edwardian Script ITC;}.cls-19{fill:#fcea9d;}.cls-20{fill:#c6a828;}.cls-21{stroke:#8aa0a0;}.cls-22{fill:#dae5e5;}</style><linearGradient id="linear-gradient" x1="102.3" y1="128.86" x2="102.3" y2="63.8" gradientUnits="userSpaceOnUse"><stop offset="0" stop-color="#d4af37"/><stop offset="0.05" stop-color="#e1c359"/><stop offset="0.15" stop-color="#feeda3"/><stop offset="0.25" stop-color="#ffdd50"/></linearGradient></defs><title>Asset 1</title><g class="cls-1"><g id="Layer_2" data-name="Layer 2"><g id="Layer_1-2" data-name="Layer 1"><polygon class="cls-2" points="0.5 59.68 102.87 0.58 205.25 59.68 205.25 177.9 102.87 237 0.5 177.9 0.5 59.68"/><polygon class="cls-3" points="144.41 212.43 160.3 203.24 5.62 57.3 1.01 59.97 1.01 77.47 144.41 212.43"/><polygon class="cls-3" points="12.39 53.38 167.09 199.33 204.75 177.59 204.75 156.38 64.01 23.6 12.39 53.38"/><line class="cls-3" x1="34.28" y1="51.12" x2="55.17" y2="72.01"/><path class="cls-3" d="M33.49,51.89c3.92,3,6.81,7,10,10.72a39.39,39.39,0,0,0,5.2,5.13c1.8,1.43,4.1,2.58,5.35,4.58,1,1.64,3.61.13,2.59-1.51-1.34-2.15-3.46-3.4-5.43-4.89a37.28,37.28,0,0,1-5.59-5.43C42.22,56.59,39.16,52.44,35,49.3a1.51,1.51,0,0,0-2,.54,1.52,1.52,0,0,0,.54,2Z"/></g><g id="Layer_2-2" data-name="Layer 2"><path class="cls-4" d="M34.61,115.61a0,0,0,0,1,0,0,41.45,41.45,0,0,1-11.72,1.55,41,41,0,0,1-11.83-1.59c-.73-.22-1.4-.46-2-.71l-.41,0a4.44,4.44,0,0,0,0,8.88H9c.67-.28,1.4-.54,2.18-.78a41.6,41.6,0,0,1,11.75-1.56,41.82,41.82,0,0,1,11.65,1.53l2.32.81a3.33,3.33,0,0,0,3.29,3h8.11a3.33,3.33,0,0,0,3.33-3.33v-8.11a3.33,3.33,0,0,0-3.33-3.33H40.14a3.32,3.32,0,0,0-3.29,3Z"/><path class="cls-4" d="M51.84,164.58a0,0,0,0,1,0,0A41.71,41.71,0,0,1,44.65,174a41.07,41.07,0,0,1-9.49,7.24,21.17,21.17,0,0,1-1.94.93l-.3.28a4.44,4.44,0,0,0,6.28,6.28,2.73,2.73,0,0,0,.23-.25c.28-.67.61-1.37,1-2.09A41.44,41.44,0,0,1,47.63,177,41.66,41.66,0,0,1,57,169.8l2.22-1.07a3.31,3.31,0,0,0,4.41-.24l5.73-5.74a3.32,3.32,0,0,0,0-4.7l-5.73-5.74a3.33,3.33,0,0,0-4.71,0l-5.73,5.74a3.31,3.31,0,0,0-.24,4.41Z"/><path class="cls-4" d="M98.66,187h0a41.45,41.45,0,0,1,1.55,11.72,41,41,0,0,1-1.59,11.83c-.22.73-.46,1.4-.71,2,0,.14,0,.27,0,.41a4.44,4.44,0,0,0,8.88,0c0-.11,0-.23,0-.34-.28-.67-.54-1.4-.78-2.18a45.07,45.07,0,0,1,0-23.4l.81-2.33a3.32,3.32,0,0,0,3-3.29v-8.11a3.33,3.33,0,0,0-3.33-3.32H98.28A3.33,3.33,0,0,0,95,173.37v8.11a3.32,3.32,0,0,0,3,3.29Z"/><path class="cls-4" d="M147.62,169.79h0A41.2,41.2,0,0,1,157,177a40.58,40.58,0,0,1,7.24,9.49c.36.67.67,1.31.94,1.93a4,4,0,0,0,.27.31,4.44,4.44,0,0,0,6.28-6.28,2.73,2.73,0,0,0-.25-.23c-.67-.28-1.37-.61-2.09-1a45.19,45.19,0,0,1-16.57-16.53l-1.07-2.22a3.31,3.31,0,0,0-.24-4.41l-5.73-5.74a3.33,3.33,0,0,0-4.71,0l-5.73,5.74a3.32,3.32,0,0,0,0,4.7l5.73,5.74a3.32,3.32,0,0,0,4.42.24Z"/><path class="cls-4" d="M170.06,123a0,0,0,0,1,0,0,41.45,41.45,0,0,1,11.72-1.55A41,41,0,0,1,193.62,123c.73.22,1.4.46,2,.71l.41,0a4.44,4.44,0,0,0,0-8.88h-.34c-.67.28-1.4.54-2.18.78a45.07,45.07,0,0,1-23.4,0l-2.32-.81a3.32,3.32,0,0,0-3.29-3h-8.11a3.33,3.33,0,0,0-3.33,3.33v8.11a3.33,3.33,0,0,0,3.33,3.33h8.11a3.32,3.32,0,0,0,3.29-3Z"/><path class="cls-4" d="M152.83,74s0,0,0,0A41.49,41.49,0,0,1,160,64.61a40.79,40.79,0,0,1,9.49-7.24,21.35,21.35,0,0,1,1.94-.94c.1-.09.2-.17.3-.27a4.44,4.44,0,1,0-6.28-6.28,2.61,2.61,0,0,0-.23.24q-.42,1-1,2.1A41.66,41.66,0,0,1,157,61.63a42,42,0,0,1-9.32,7.16l-2.22,1.07a3.31,3.31,0,0,0-4.41.24l-5.73,5.73a3.33,3.33,0,0,0,0,4.71l5.73,5.73a3.33,3.33,0,0,0,4.71,0l5.73-5.73a3.32,3.32,0,0,0,.24-4.42Z"/><path class="cls-4" d="M106,51.56a0,0,0,0,1,0,0,41.45,41.45,0,0,1-1.55-11.72A41,41,0,0,1,106.05,28c.22-.73.46-1.4.71-2,0-.14,0-.27,0-.41a4.44,4.44,0,0,0-8.88,0c0,.11,0,.23,0,.34.28.67.54,1.4.78,2.18a41.6,41.6,0,0,1,1.56,11.75,41.82,41.82,0,0,1-1.53,11.65l-.82,2.33a3.32,3.32,0,0,0-3,3.29v8.11a3.33,3.33,0,0,0,3.33,3.33h8.11a3.33,3.33,0,0,0,3.33-3.33V57.1a3.32,3.32,0,0,0-3-3.29Z"/><path class="cls-4" d="M57.05,68.8a0,0,0,0,1,0,0,41.49,41.49,0,0,1-9.38-7.19,41,41,0,0,1-7.24-9.49c-.36-.67-.67-1.32-.94-1.94-.09-.1-.17-.2-.27-.3a4.44,4.44,0,1,0-6.28,6.28c.08.07.16.16.25.23.67.28,1.37.61,2.09,1a41.37,41.37,0,0,1,9.41,7.2,42.19,42.19,0,0,1,7.16,9.32l1.07,2.22a3.32,3.32,0,0,0,.24,4.42l5.73,5.73a3.33,3.33,0,0,0,4.71,0l5.73-5.73a3.33,3.33,0,0,0,0-4.71L63.58,70.1a3.32,3.32,0,0,0-4.42-.24Z"/><g class="cls-5"><circle class="cls-6" cx="114.34" cy="141.29" r="53.74"/><circle class="cls-7" cx="114.34" cy="141.29" r="53.74"/></g><circle class="cls-8" cx="102.34" cy="119.29" r="53.74"/><circle class="cls-9" cx="102.34" cy="119.29" r="53.74"/><path class="cls-10" d="M88.41,67.89A53.83,53.83,0,0,0,58.48,89.23l75.9,72.56a53.87,53.87,0,0,0,19.91-30.93Z"/><path class="cls-10" d="M121.46,169a53.26,53.26,0,0,0,10.61-5.55L56.87,91.57a53.72,53.72,0,0,0-5,10.86Z"/><g class="cls-5"><circle class="cls-6" cx="104.34" cy="122.29" r="40.3"/><circle class="cls-7" cx="104.34" cy="122.29" r="40.3"/></g><circle class="cls-8" cx="102.34" cy="119.29" r="40.3"/><circle class="cls-9" cx="102.34" cy="119.29" r="40.3"/><path class="cls-11" d="M95,80.16a40.32,40.32,0,0,0-26.31,18l56.13,54a40.34,40.34,0,0,0,16.91-27.09Z"/><path class="cls-11" d="M112.82,157.65a39.81,39.81,0,0,0,9.83-4.16L67.33,100.28a40.28,40.28,0,0,0-3.76,10Z"/><g class="cls-12"><rect class="cls-13" x="71.21" y="108.94" width="64.17" height="24.71" rx="12.35"/><rect class="cls-14" x="71.21" y="108.94" width="64.17" height="24.71" rx="12.35"/></g><rect class="cls-15" x="70.21" y="106.94" width="64.17" height="24.71" rx="12.35"/><rect class="cls-16" x="70.21" y="106.94" width="64.17" height="24.71" rx="12.35"/><path class="cls-17" d="M84.85,107.45H83a11.49,11.49,0,0,0-2.64.2l24.5,23.52,4.63,0Z"/><path class="cls-17" d="M100.52,131.16h1.39L78.11,108.3c-.32.14-.63.28-.93.44Z"/><g class="cls-18"><text class="cls-19" transform="translate(76.71 123.81)"><tspan xml:space="preserve"> Vault</tspan></text></g><text class="cls-20" transform="translate(75.71 123.81)"><tspan xml:space="preserve"> Vault</tspan></text><path class="cls-21" d="M88.41,74l-.59,4.47-4.17,1.73-3.58-2.75L80.66,73l4.17-1.73Zm-7.75-1,7.16,5.49Z"/><path class="cls-21" d="M60.44,97.07l2.74,3.58-1.72,4.17-4.48.59-2.74-3.58L56,97.66Zm-6.2,4.76,8.94-1.18Z"/><path class="cls-21" d="M57,133.18l4.48.59,1.72,4.17-2.74,3.57L56,140.93l-1.72-4.17Zm-1,7.75,5.5-7.16Z"/><path class="cls-21" d="M80.07,161.15l3.58-2.74,4.17,1.72.59,4.48-3.58,2.74-4.17-1.72Zm4.76,6.2-1.18-8.94Z"/><path class="cls-21" d="M116.18,164.61l.59-4.48,4.17-1.72,3.58,2.74-.59,4.48-4.17,1.72Zm7.75,1-7.16-5.5Z"/><path class="cls-21" d="M144.16,141.51l-2.75-3.57,1.73-4.17,4.47-.59,2.75,3.58-1.73,4.17Zm6.2-4.75-9,1.18Z"/><path class="cls-21" d="M147.61,105.41l-4.47-.59-1.73-4.17,2.75-3.58,4.47.59,1.73,4.17Zm1-7.75-5.49,7.16Z"/><path class="cls-21" d="M124.52,77.43l-3.58,2.75-4.17-1.73L116.18,74l3.58-2.75L123.93,73Zm-4.76-6.2,1.18,9Z"/></g><g id="Layer_3" data-name="Layer 3"><path class="cls-22" d="M53.91,77.67c.5-1.23,6.82-6.44,6.82-6.44l7.32,6s-2.25,2.21-2.46,2.46C61.54,74.72,53.42,78.9,53.91,77.67Z"/><path class="cls-22" d="M50.16,65.42c1.12,1.28,4.35,4.87,4.64,5.39s-1.38,4.5-1.38,4.5l4.89-4.71c.08.1-3.45-2.26-4-2.71s-3.86-2.64-4.69-3.13Z"/><path class="cls-22" d="M37.85,50c0-1-2.62-1.16-4.08.15s-2,4.06-1,4.31c.85-.07,1.1-2.52,1.71-3.2C35.75,49.77,37.77,50.8,37.85,50Z"/><path class="cls-22" d="M46.74,113H39.29l-.49,6.26S39.22,114.16,46.74,113Z"/><path class="cls-22" d="M36.5,115.94a17.44,17.44,0,0,0,0,3.57c-2-1.83-15.57-.71-15.33-1.07s5.85-.54,7.08-.71,6.1-1,7.79-2A.29.29,0,0,1,36.5,115.94Z"/><path class="cls-22" d="M8.47,115.69c-.5-.44-4,.79-3.34,4.45.45,2.64,2.08.3,2-1.39C7.05,116.73,9.07,116.2,8.47,115.69Z"/><path class="cls-22" d="M98.84,54.63c3-.9,6.25-.52,7.19.22s.66,9.89.66,9.89a44.25,44.25,0,0,0-8.5,0C97.42,62.14,97.75,56.1,98.84,54.63Z"/><path class="cls-22" d="M104.38,28.8c.89-4.22-4.56-4.15-3.33.38.89,3.28.31,17.41-1.15,23.8,1.1-.35,3.44-.74,5.08.2C102,42.44,104.12,30,104.38,28.8Z"/><path class="cls-22" d="M99.55,24.21c-.8-.89,2.22-2.48,2.89-1.59S100.34,25.1,99.55,24.21Z"/><path class="cls-22" d="M136.88,76.83c-.49-.35,4.9-5.6,6.82-5.6,1.2,0,3.69,2.25,5,3.49.39.37-.49.41-1,.3a9.54,9.54,0,0,0-4.29.33c-3.34,1.37-2.11,2.11-4.57,2.29A2.39,2.39,0,0,1,136.88,76.83Z"/><path class="cls-22" d="M166.67,56c-.31.39-2.16-1.84-2.57-1.36-3.33,4-9.73,10.87-16.22,15.19-.26.19,2.51,2.1,2.6,1.59C156,64.32,166.67,56,166.67,56Z"/><path class="cls-22" d="M165.78,52.15c-.84-1.33,2-4.88,4.92-1.08C171.92,53.41,166.63,53.48,165.78,52.15Z"/><path class="cls-22" d="M169.3,116.18V121c-.12,0,9-3.18,21.51-1.27,2.11-1.12,0-2.34,0-2.34C191.28,118.23,172.58,119.51,169.3,116.18Z"/><path class="cls-22" d="M196.09,121.55c-2.81-.7-1.11-5.28,1.54-4.79S200.14,122.55,196.09,121.55Z"/><path class="cls-22" d="M163.53,113.25s3.38-1,3.59,2.93.28,3.55.28,3.55S167,114.59,163.53,113.25Z"/><path class="cls-22" d="M170.38,183.88c-2.16-.15-5.56-2.67-5.56-2.67l-4.37-3.3c-.23,0,5.38,7.77,6.13,8.91s1.21,3.6,4.09.85S171.44,183.63,170.38,183.88Z"/><path class="cls-22" d="M99.83,212.55s1.5-2.67,2.15-10.45c2,6.48,1.71,8,3.2,10.45C107.56,216.4,98.28,218.26,99.83,212.55Z"/><path class="cls-22" d="M57.69,155.65s-3.75,2.27-4,3.95,3.18,4.48,3.18,4.48-1.84-2.68-.75-5C56.69,157.86,57.69,155.65,57.69,155.65Z"/><path class="cls-22" d="M53.35,164.08,56,166.76s-13.14,11.6-14.69,12.44S55.25,166.4,53.35,164.08Z"/><path class="cls-22" d="M33.92,182.83a3.42,3.42,0,0,0-1.54,2.49c0,1.5,1.26,3.8,2.67,2S34.86,182.88,33.92,182.83Z"/></g></g></g></svg>